<?xml version="1.0" encoding="UTF-8" standalone="no"?>
<svg
   version="1.1"
   
   id="svg15"
   viewBox="0 0 361.09354 361.47061"
   sodipodi:docname="249fcdf077f3c15b424c6f7a1911491e.cdr"
   xmlns:inkscape="http://www.inkscape.org/namespaces/inkscape"
   xmlns:sodipodi="http://sodipodi.sourceforge.net/DTD/sodipodi-0.dtd"
   xmlns="http://www.w3.org/2000/svg"
   xmlns:svg="http://www.w3.org/2000/svg">
  <defs
     id="defs19" />
  <sodipodi:namedview
     id="namedview17"
     pagecolor="#ffffff"
     bordercolor="#666666"
     borderopacity="1.0"
     inkscape:pageshadow="2"
     inkscape:pageopacity="0.0"
     inkscape:pagecheckerboard="0" />
  <g
     id="Layer1000"
     transform="translate(-168.05533,-95.10431)">
    <g
       id="Layer1001">
      <path
         d="m 478.1242,154.9344 c -2.4985,2.499 -0.5885,6.9718 7.4095,17.3653 59.3076,77.0496 39.8911,192.2196 -41.54,246.4024 -36.6931,24.4165 -68.91,31.1819 -129.1564,27.1315 -5.6736,-0.3804 -6.7229,0.0527 -6.7229,2.7873 0,12.4206 72.1108,9.0533 107.8647,-5.0386 104.8428,-41.318 146.1799,-174.6977 82.9831,-267.7572 -11.9931,-17.657 -18.0229,-23.705 -20.838,-20.8893 z"
         style="fill:#ffffff;fill-rule:evenodd;stroke:#ffffff;stroke-width:0.5669;stroke-linecap:butt;stroke-linejoin:miter;stroke-dasharray:none"
         id="path2" />
      <path
         d="m 331.6408,132.9854 c -24.6172,3.6278 -56.2955,16.232 -56.2955,22.4002 0,4.7855 3.5552,4.415 16.5484,-1.7248 71.1703,-33.6257 157.8191,3.1663 183.5988,77.9592 42.8502,124.3194 -98.6116,229.5576 -206.0285,153.2656 -59.6895,-42.3924 -73.4539,-126.5938 -30.6043,-187.2238 11.3706,-16.0889 5.387,-22.8909 -6.224,-7.0738 -71.5391,97.4579 3.1515,235.1157 123.8451,228.2445 121.8376,-6.9375 180.0901,-152.9294 96.2498,-241.215 -30.7369,-32.3652 -80.3208,-50.6418 -121.0881,-44.6355 z"
         style="fill:#ffffff;fill-rule:evenodd;stroke:#ffffff;stroke-width:0.5669;stroke-linecap:butt;stroke-linejoin:miter;stroke-dasharray:none"
         id="path4" />
      <path
         d="m 330.8009,95.7654 c -1.3856,0.3342 -8.1927,1.5287 -15.1251,2.6524 -130.1993,21.1184 -191.7817,179.9331 -111.1762,286.7119 25.1016,33.2504 82.7467,70.901 85.6017,55.9097 0.3575,-1.8715 -3.0742,-4.2421 -11.5914,-8.0011 -34.9418,-15.4329 -66.5609,-45.8402 -83.8125,-80.5929 -62.6582,-126.2223 44.5427,-269.0586 184.5311,-245.8729 21.0291,3.4843 24.6816,-3.7775 4.0723,-8.0986 -9.3804,-1.9673 -47.439,-3.9294 -52.4999,-2.7068 z"
         style="fill:#ffffff;fill-rule:evenodd;stroke:#ffffff;stroke-width:0.5669;stroke-linecap:butt;stroke-linejoin:miter;stroke-dasharray:none"
         id="path6" />
    </g>
    <g
       id="Layer1002">
      <path
         d="m 291.4313,206.2493 v 139.1812 q 0,6.112 6.112,6.112 h 29.6305 q 6.112,0 6.112,-6.112 V 206.2493 q 0,-6.112 -6.112,-6.112 h -29.6305 q -6.112,0 -6.112,6.112 z"
         style="fill:none;stroke:#ffffff;stroke-width:8.6397;stroke-linecap:butt;stroke-linejoin:miter;stroke-dasharray:none"
         id="path9" />
      <path
         d="m 363.9151,206.2493 v 139.1812 q 0,6.112 6.112,6.112 h 29.6305 q 6.112,0 6.112,-6.112 V 206.2493 q 0,-6.112 -6.112,-6.112 h -29.6305 q -6.112,0 -6.112,6.112 z"
         style="fill:none;stroke:#ffffff;stroke-width:8.6397;stroke-linecap:butt;stroke-linejoin:miter;stroke-dasharray:none"
         id="path11" />
    </g>
  </g>
</svg>
